<?xml version="1.0" encoding="utf-8"?>
<!-- Generator: Adobe Illustrator 27.7.0, SVG Export Plug-In . SVG Version: 6.00 Build 0)  -->
<svg version="1.1" id="로고" xmlns="http://www.w3.org/2000/svg" xmlns:xlink="http://www.w3.org/1999/xlink" x="0px" y="0px"
	 viewBox="0 0 139.91 155.74" style="enable-background:new 0 0 139.91 155.74;" xml:space="preserve">
<style type="text/css">
	.st0{fill:url(#SVGID_1_);}
	.st1{fill:url(#SVGID_00000045618902136511514750000006519123058368088215_);}
	.st2{fill:#FFBD6C;}
	.st3{fill:#FF9A23;}
</style>
<g>
	<linearGradient id="SVGID_1_" gradientUnits="userSpaceOnUse" x1="48.3075" y1="30.632" x2="48.3075" y2="145.8717">
		<stop  offset="0" style="stop-color:#FFBD6C"/>
		<stop  offset="1" style="stop-color:#FF9A23"/>
	</linearGradient>
	<path class="st0" d="M73.99,69.49c-2.78-2.38-5.91-4.17-9.38-5.36c-3.48-1.19-7.05-1.79-10.72-1.79H37.36
		c-2.28,0-4.02,0.67-5.21,2.01c-1.19,1.34-1.79,2.85-1.79,4.54v1.64c0,1.69,0.67,3.1,2.01,4.24c1.34,1.14,3,1.71,4.99,1.71h11.61
		c3.47,0.1,6.5,0.45,9.08,1.04c2.58,0.6,4.71,1.61,6.4,3.05c1.69,1.44,2.95,3.3,3.8,5.58c0.84,2.28,1.27,5.11,1.27,8.49v24.55
		l-27.4-35.32c-2.37-3.05-6.77-3.61-9.82-1.24c-3.05,2.37-3.61,6.77-1.24,9.82l8.97,11.56H27.24V36.59c0-1.59-0.55-2.98-1.64-4.17
		c-1.09-1.19-2.63-1.79-4.62-1.79h-1.04c-2.08,0-3.7,0.6-4.84,1.79c-1.14,1.19-1.71,2.58-1.71,4.17v102.88
		c0,1.69,0.54,3.15,1.64,4.39c1.09,1.24,2.73,1.86,4.91,1.86h1.04c2.18,0,3.77-0.62,4.76-1.86c0.99-1.24,1.49-2.71,1.49-4.39v-21.44
		H50.4c0.16,0,0.32-0.01,0.48-0.02l19.27,24.84c0.07,0.09,0.16,0.18,0.23,0.27c0.24,0.41,0.51,0.79,0.86,1.12
		c1.14,1.09,2.65,1.64,4.54,1.64h0.89c1.88,0,3.45-0.52,4.69-1.56c1.24-1.04,1.86-2.61,1.86-4.69V91.53c0-4.96-0.84-9.28-2.53-12.95
		C79,74.9,76.77,71.87,73.99,69.49z"/>
	
		<linearGradient id="SVGID_00000047746983369324841930000004345207075700488069_" gradientUnits="userSpaceOnUse" x1="105.5868" y1="30.4831" x2="105.5868" y2="146.6692">
		<stop  offset="0" style="stop-color:#FFBD6C"/>
		<stop  offset="1" style="stop-color:#FF9A23"/>
	</linearGradient>
	<path style="fill:url(#SVGID_00000047746983369324841930000004345207075700488069_);" d="M120.3,30.48h-1.49
		c-2.08,0-3.7,0.6-4.84,1.79c-1.14,1.19-1.71,2.58-1.71,4.17V97.1c-5.84,0.11-13.48,1.37-19.43,6.28c-3.88,3.2-8.5,9.26-8.5,19.97
		c0,9.46,4.23,14.84,7.78,17.69c5.63,4.52,13.04,5.63,18.99,5.63c3.92,0,7.2-0.48,8.91-0.8h0.28c2.18,0,3.82-0.62,4.91-1.86
		c1.09-1.24,1.64-2.71,1.64-4.39V36.44c0-1.59-0.6-2.98-1.79-4.17C123.87,31.08,122.28,30.48,120.3,30.48z M100.86,130.11
		c-1.09-0.88-2.53-2.53-2.53-6.76c0-4.27,1.11-7.26,3.38-9.15c2.73-2.27,6.93-2.99,10.54-3.08v21.52
		C108.31,132.76,103.59,132.31,100.86,130.11z"/>
	<circle class="st2" cx="119.55" cy="18.91" r="7.3"/>
</g>
</svg>
