<?xml version="1.0" encoding="utf-8"?>
<!-- Generator: Adobe Illustrator 27.7.0, SVG Export Plug-In . SVG Version: 6.00 Build 0)  -->
<svg version="1.1" id="로고" xmlns="http://www.w3.org/2000/svg" xmlns:xlink="http://www.w3.org/1999/xlink" x="0px" y="0px"
	 viewBox="0 0 212.99 143.23" style="enable-background:new 0 0 212.99 143.23;" xml:space="preserve">
<style type="text/css">
	.st0{fill:url(#SVGID_1_);}
	.st1{fill:url(#SVGID_00000098922212847153918270000007622169607352748211_);}
	.st2{fill:#FFBD6C;}
	.st3{fill:#FF9A23;}
</style>
<g>
	<path class="st3" d="M34.09,56.65c-20.19,0-30.41,8.88-30.41,21.53S13.9,99.71,34.09,99.71c20.19,0,30.41-8.88,30.41-21.53
		S54.28,56.65,34.09,56.65z M34.09,84.02c-8.27,0-11.68-2.55-11.68-5.84c0-3.28,3.41-5.84,11.68-5.84c8.27,0,11.68,2.55,11.68,5.84
		C45.77,81.46,42.36,84.02,34.09,84.02z"/>
	<path class="st3" d="M64.38,53.97c0.36-3.04,0.36-14.84,0-17.15c-2.8-0.12-10.58-0.24-19.71-0.24c0-2.8-0.12-5.6-0.36-8.15
		c-4.14-0.61-16.3-0.61-20.56,0c-0.24,2.55-0.24,5.35-0.24,8.15c-9.85,0-18.25,0.12-20.8,0.24c-0.85,2.68-0.85,14.48,0,17.15
		C9.52,54.34,56.59,54.34,64.38,53.97z"/>
	<g>
		<path class="st3" d="M113.52,30.98c-4.14-0.73-15.57-0.73-19.71,0c0,2.31-0.12,15.08-0.12,29.68h-5.84c0-14.35-0.12-27-0.24-29.19
			c-4.14-0.61-15.08-0.61-19.22,0c-0.44,4.78-0.48,58.52-0.12,72.09l19.49-5.34c0.05-4.97,0.09-11.68,0.09-18.95h5.84
			c0,6.47,0.03,12.51,0.06,17.31l20.28-5.55C114.31,69.84,114.14,34.86,113.52,30.98z"/>
		<path class="st2" d="M68.39,106.28c4.74,0.73,15.69,0.73,19.22,0c0.06-1.04,0.11-3.96,0.15-8.05l-19.49,5.34
			C68.31,104.86,68.35,105.79,68.39,106.28z"/>
		<path class="st2" d="M93.82,106.77c4.38,0.49,15.81,0.49,19.71,0c0.23-1.61,0.4-7.68,0.51-15.73l-20.28,5.55
			C93.78,101.8,93.82,105.56,93.82,106.77z"/>
	</g>
	<g>
		<path class="st3" d="M28.86,103.6c-4.26-0.73-16.54-0.73-20.68,0c-0.34,4.03-0.45,10.31-0.4,16.53l21.12-5.78
			C29.08,111.18,28.97,107.34,28.86,103.6z"/>
		<path class="st2" d="M114.74,115.04c-5.35-0.24-77.85-0.24-85.88,0c0.02-0.22,0.03-0.46,0.04-0.69l-21.12,5.78
			c0.04,5.05,0.18,10.05,0.4,13.76c8.76,0.49,98.29,0.49,106.56,0C115.47,129.88,115.47,119.17,114.74,115.04z"/>
	</g>
	<g>
		<path class="st3" d="M207.43,30.98c-4.14-0.73-16.06-0.73-20.19,0c-0.31,2.56-0.48,20.17-0.53,40.15l21.33-5.84
			C207.95,47.82,207.75,33.29,207.43,30.98z"/>
		<path class="st2" d="M208.03,65.29l-21.33,5.84c-0.07,27.48,0.11,59.43,0.53,62.88c4.74,0.85,16.67,0.85,20.19,0
			C207.96,130.32,208.16,93.87,208.03,65.29z"/>
	</g>
	<g>
		<path class="st3" d="M145.88,52.51c4.01,0.12,23.48,0.12,29.07,0c0.49-4.5,0.49-15.57,0-18.98c-8.27-0.49-44.28-0.49-50.12,0
			c-0.47,6.29-0.68,31.45-0.63,54.71l21.4-5.86C145.6,68.38,145.69,54.2,145.88,52.51z"/>
		<path class="st2" d="M179.45,110.9c-5.23-0.24-27.61-0.24-33.57,0c-0.18-2.13-0.27-15.24-0.27-28.52l-21.4,5.86
			c0.04,19,0.25,36.73,0.63,41.88c8.03,0.49,47.56,0.49,54.62,0C180.06,125.74,179.94,114.19,179.45,110.9z"/>
	</g>
	<circle class="st3" cx="197.07" cy="13.97" r="8.99"/>
</g>
</svg>
